<svg width="28" height="28" viewBox="0 0 28 28" fill="none" xmlns="http://www.w3.org/2000/svg">
<circle cx="14" cy="14" r="14" fill="#EA90FF"/>
<path d="M13.25 16C13.9404 16 14.5 15.4404 14.5 14.75C14.5 14.0596 13.9404 13.5 13.25 13.5C12.5596 13.5 12 14.0596 12 14.75C12 15.4404 12.5596 16 13.25 16Z" stroke="#1F2023" stroke-linecap="round" stroke-linejoin="round"/>
<path d="M8 20.0001L12.3688 15.6313" stroke="#1F2023" stroke-linecap="round" stroke-linejoin="round"/>
<path d="M8 20L16.7188 18.55C16.8048 18.5353 16.8854 18.4981 16.9524 18.4421C17.0194 18.3861 17.0703 18.3133 17.1 18.2312L18.5 14.5L13.5 9.5L9.76875 10.9C9.68653 10.9313 9.61389 10.9835 9.55799 11.0515C9.5021 11.1194 9.46488 11.2008 9.45 11.2875L8 20Z" stroke="#1F2023" stroke-linecap="round" stroke-linejoin="round"/>
<path d="M18.5 14.4999L20.1438 12.8562C20.191 12.8097 20.2285 12.7542 20.2541 12.6931C20.2797 12.6319 20.2929 12.5663 20.2929 12.4999C20.2929 12.4336 20.2797 12.368 20.2541 12.3068C20.2285 12.2457 20.191 12.1902 20.1438 12.1437L15.8562 7.8562C15.8097 7.80895 15.7543 7.77144 15.6931 7.74583C15.6319 7.72022 15.5663 7.70703 15.5 7.70703C15.4337 7.70703 15.3681 7.72022 15.3069 7.74583C15.2457 7.77144 15.1903 7.80895 15.1438 7.8562L13.5 9.49995" stroke="#1F2023" stroke-linecap="round" stroke-linejoin="round"/>
</svg>
