<svg xmlns="http://www.w3.org/2000/svg" version="1.1" xmlns:xlink="http://www.w3.org/1999/xlink" xmlns:svgjs="http://svgjs.dev/svgjs" width="100%" height="100%" viewBox="0 0 1000 600"><rect width="1000" height="600" x="0" y="0" fill="#000000"/><g><circle r="166.66666666666666" cx="321.1918284098307" cy="343.4140549662312" fill="#ffffff" transform="matrix(0.8089297204123489,0,0,0.8089297204123489,0,22.20216011633424)"/><path d="M352.0904908880806 319.88264530083114L352.0904908880806 319.88264530083114L322.47562987818236 319.26992403855746Q320.98759252694606 328.2856797548713 320.98759252694606 341.9406107426864L320.98759252694606 341.9406107426864L320.98759252694606 343.42864809392273Q358.8012475701265 342.7867496286835 362.5942839556307 342.7867496286835L362.5942839556307 342.7867496286835Q363.64466326238573 348.03864616245863 363.64466326238573 352.03592296872074L363.64466326238573 352.03592296872074Q363.64466326238573 365.6908539565358 351.04011158132556 365.6908539565358L351.04011158132556 365.6908539565358L321.83373141294317 365.6908539565358Q323.5260091849374 381.00888551337977 331.6956260152541 383.5473021713711L331.6956260152541 383.5473021713711Q333.3879037872483 384.1600234336449 335.8971432422742 384.1600234336449L335.8971432422742 384.1600234336449Q344.7378357407955 384.1600234336449 361.5439046488757 377.44926675159894L361.5439046488757 377.44926675159894Q367.2042820241666 380.1919238303481 367.2042820241666 390.17052724452077Q367.2042820241666 400.1491306586933 357.66333665447524 409.28159518686886Q348.0932140818185 418.4140597150444 326.03524863996324 418.4140597150444L326.03524863996324 418.4140597150444Q305.027662504863 418.4140597150444 291.57697193780575 406.85988734073925L291.57697193780575 406.85988734073925Q276.4631808017197 394.05109523892116 276.4631808017197 362.94819687778664L276.4631808017197 362.94819687778664Q276.4631808017197 338.99371324317934 285.7123541417569 319.4741644593153L285.7123541417569 319.4741644593153L280.4604576079819 319.88264530083114Q274.9751434504835 314.8349891878141 274.9751434504835 299.51695763097007L274.9751434504835 299.51695763097007Q274.9751434504835 268.4140592698356 296.42038763006497 268.4140592698356L296.42038763006497 268.4140592698356Q297.47076693682 268.4140592698356 303.13114431211085 268.4140592698356Q308.82069889036717 268.4140592698356 326.96891913485655 270.42728627444933Q345.1463165823114 272.4113360760977 364.89928298989867 272.4113360760977L364.89928298989867 272.4113360760977Q367.40852244492453 278.71361191662777 367.40852244492453 292.4852517163046Q367.40852244492453 306.227714313016 363.84890368314365 313.0551798069236Q360.28928492136276 319.88264530083114 352.0904908880806 319.88264530083114Z " fill="#ffff00" transform="matrix(0.8089297204123489,0,0,0.8089297204123489,0,22.20216011633424)"/><path d="M648.307180951557 319.88264530083114L648.307180951557 319.88264530083114L618.6923199416588 319.26992403855746Q617.2042825904225 328.2856797548713 617.2042825904225 341.9406107426864L617.2042825904225 341.9406107426864L617.2042825904225 343.42864809392273Q655.017937633603 342.7867496286835 658.8109740191071 342.7867496286835L658.8109740191071 342.7867496286835Q659.8613533258622 348.03864616245863 659.8613533258622 352.03592296872074L659.8613533258622 352.03592296872074Q659.8613533258622 365.6908539565358 647.256801644802 365.6908539565358L647.256801644802 365.6908539565358L618.0504214764196 365.6908539565358Q619.7426992484138 381.00888551337977 627.9123160787306 383.5473021713711L627.9123160787306 383.5473021713711Q629.6045938507248 384.1600234336449 632.1138333057506 384.1600234336449L632.1138333057506 384.1600234336449Q640.954525804272 384.1600234336449 657.7605947123521 377.44926675159894L657.7605947123521 377.44926675159894Q663.4209720876431 380.1919238303481 663.4209720876431 390.17052724452077Q663.4209720876431 400.1491306586933 653.8800267179518 409.28159518686886Q644.3099041452949 418.4140597150444 622.2519387034397 418.4140597150444L622.2519387034397 418.4140597150444Q601.2443525683394 418.4140597150444 587.7936620012822 406.85988734073925L587.7936620012822 406.85988734073925Q572.6798708651961 394.05109523892116 572.6798708651961 362.94819687778664L572.6798708651961 362.94819687778664Q572.6798708651961 338.99371324317934 581.9290442052334 319.4741644593153L581.9290442052334 319.4741644593153L576.6771476714582 319.88264530083114Q571.1918335139599 314.8349891878141 571.1918335139599 299.51695763097007L571.1918335139599 299.51695763097007Q571.1918335139599 268.4140592698356 592.6370776935414 268.4140592698356L592.6370776935414 268.4140592698356Q593.6874570002965 268.4140592698356 599.3478343755874 268.4140592698356Q605.0373889538437 268.4140592698356 623.1856091983329 270.42728627444933Q641.3630066457878 272.4113360760977 661.115973053375 272.4113360760977L661.115973053375 272.4113360760977Q663.6252125084009 278.71361191662777 663.6252125084009 292.4852517163046Q663.6252125084009 306.227714313016 660.0655937466202 313.0551798069236Q656.5059749848392 319.88264530083114 648.307180951557 319.88264530083114ZM682.1235591884754 375.55274855884676L682.1235591884754 375.55274855884676Q676.6674222339423 375.55274855884676 673.6038159225736 371.8764209852042Q670.5693868141702 368.2000934115617 670.5693868141702 361.37262791765414Q670.5693868141702 354.5451624237466 674.7709040411903 348.68054462769777L674.7709040411903 348.68054462769777L737.997902867249 348.68054462769777Q749.7563156623119 348.68054462769777 749.7563156623119 362.5397160362708L749.7563156623119 362.5397160362708Q749.7563156623119 369.4547131390746 747.0428357865283 372.1973702178238L747.0428357865283 372.1973702178238Q699.1338685173134 375.55274855884676 690.9350744840312 375.55274855884676Q682.7654576537145 375.55274855884676 682.1235591884754 375.55274855884676ZM816.5721104531169 311.68385126754896L816.5721104531169 311.68385126754896Q818.6728690666268 316.9357478013241 818.6728690666268 322.7128339884767Q818.6728690666268 328.48992017562915 818.3519198340073 331.1158684425167Q818.0309706013877 333.7418167094043 815.7259715671198 336.80542302077305Q813.4209725328519 339.83985212917645 809.6279361473476 339.83985212917645Q805.8640769648089 339.83985212917645 798.7156622382818 339.4313712876606L798.7156622382818 339.4313712876606L798.7156622382818 370.3008520250717Q798.7156622382818 390.89995731865616 816.5721104531169 397.6107140007021L816.5721104531169 397.6107140007021Q816.5721104531169 405.40102719246846 811.2035051074802 411.90754345375643Q805.8640769648089 418.4140597150444 796.6149036247716 418.4140597150444L796.6149036247716 418.4140597150444Q783.1642130577145 418.4140597150444 774.9654190244323 408.55216511273346Q766.7958021941156 398.66109330745707 766.7958021941156 382.90540370613195L766.7958021941156 382.90540370613195L766.7958021941156 337.1263722533926Q761.310488036617 335.6383349021564 756.9047303888392 333.53757628864633L756.9047303888392 333.53757628864633L756.7004899680812 331.0283368336205Q756.7004899680812 316.73150738056614 766.5623845703922 311.9172688912724L766.5623845703922 311.9172688912724Q765.7454228873605 297.4161990174601 763.0027658086112 289.01316456342L763.0027658086112 289.01316456342L762.1566269226141 286.06626706391285Q763.0027658086112 285.0158877571579 764.5783347687438 283.32360998516367Q766.1539037288762 281.6605094161349 771.4058002626514 278.91785233738574Q776.6576967964263 276.2043724616019 782.3180741717174 276.2043724616019L782.3180741717174 276.2043724616019Q798.7156622382818 276.2043724616019 798.7156622382818 302.4638551304772L798.7156622382818 302.4638551304772L798.7156622382818 311.0711300052752Q805.4264189203275 311.68385126754896 816.5721104531169 311.68385126754896ZM867.6322156425965 356.64592103725664L867.6322156425965 355.18706088898574Q867.6322156425965 340.2775101736576 851.0303871552744 340.2775101736576L851.0303871552744 340.2775101736576Q841.5769733944792 340.2775101736576 831.2774207476871 346.3463683904644L831.2774207476871 346.3463683904644Q827.9220424066641 342.99099004944145 827.9220424066641 338.060042748286Q827.9220424066641 333.1290954471305 830.7522310943095 327.87719891335547Q833.582419781955 322.62530237958043 838.3091266623526 317.8985954991828Q843.0358335427502 313.1718886187853 850.3884886900353 310.1082823074165Q857.7411438373204 307.0738531990131 865.9399378706023 307.0738531990131L865.9399378706023 307.0738531990131Q882.3375259371669 307.0738531990131 891.1490412327228 317.3734058458053Q899.9605565282786 327.6729584925975 899.9605565282786 346.7840264349457L899.9605565282786 346.7840264349457L899.9605565282786 394.89723412491827L904.5997317997799 405.6052676132263Q903.753592913783 407.0641277614972 902.294732765512 409.16488637500726Q900.8066954142757 411.2656449885172 895.7590393012586 414.85444095326346Q890.7405603912068 418.4140597150444 885.2552462337085 418.4140597150444L885.2552462337085 418.4140597150444Q871.6003152458934 418.4140597150444 868.6825949493516 403.3002685789584L868.6825949493516 403.3002685789584Q861.7384206435825 418.4140597150444 849.4548181951418 418.4140597150444Q837.1712157467014 418.4140597150444 830.7522310943095 410.74045533513976Q824.3332464419177 403.066850955235 824.3332464419177 390.6957168978982L824.3332464419177 390.6957168978982Q824.3332464419177 358.5424392300087 867.6322156425965 356.64592103725664L867.6322156425965 356.64592103725664ZM850.592729110793 382.90540370613195L850.592729110793 382.90540370613195Q850.592729110793 391.104197739414 856.2822836890493 393.409196773682L856.2822836890493 393.409196773682Q857.5369034165624 394.05109523892116 858.9957635648332 394.05109523892116L858.9957635648332 394.05109523892116Q863.1972807918532 394.05109523892116 867.6322156425965 389.20767954666195L867.6322156425965 389.20767954666195L867.6322156425965 366.09933479805176Q850.592729110793 370.09661160431386 850.592729110793 382.90540370613195ZM939.2622489226953 332.07871614037543L939.2622489226953 333.9752343331276Q939.2622489226953 342.37826878716766 954.3760400587814 349.0890254692136L954.3760400587814 349.0890254692136Q960.4740754785535 352.03592296872074 966.6596425072219 355.5080101216053Q972.8743867388557 358.95092007152454 977.2801443866338 365.5741451446742Q981.6859020344116 372.1973702178238 981.6859020344116 381.650783978619L981.6859020344116 381.650783978619Q981.6859020344116 398.25261246594124 970.4526788927262 408.31874748901015Q959.2194557510406 418.4140597150444 942.7343360755799 418.4140597150444Q926.2200391971539 418.4140597150444 917.2042834808401 411.17811337962104Q908.1593505615608 403.9129898412321 908.1593505615608 395.94761343167335L908.1593505615608 395.94761343167335Q908.1593505615608 390.4622992741749 910.7852988284483 386.17325043825855Q913.411247095336 381.8550243993769 916.153904174085 380.3961642511061L916.153904174085 380.3961642511061L918.6631436291109 378.9081268998697Q919.9177633566239 380.8046450926219 922.3394712027534 383.63483378026734Q924.7611790488832 386.49419967087823 931.9095937754103 391.104197739414Q939.0580085019374 395.7141958079499 944.1931962238509 395.7141958079499Q949.3283839457642 395.7141958079499 951.341610950378 394.1386268478174Q953.3256607520264 392.5630578876849 953.3256607520264 390.6957168978982L953.3256607520264 390.6957168978982Q953.3256607520264 387.1069209331519 946.7024356788768 383.1096441268898Q940.1083878086924 379.14154452359315 932.3180746169262 375.66945737070847Q924.5569386281252 372.1973702178238 917.9337135549756 365.48661353577796Q911.3104884818258 358.74667965076657 911.3104884818258 350.13940477596856Q911.3104884818258 341.53212990117055 916.4748534067046 333.7418167094043Q921.6100411286181 325.9806807206033 928.5542154343873 322.8295428003383L928.5542154343873 322.8295428003383Q929.6045947411424 316.11878611829235 937.0447814973236 311.0711300052752Q944.5141454564705 306.02347389225804 955.8640774100177 306.02347389225804Q967.1848321605994 306.02347389225804 974.1290064663688 311.2753704260332Q981.0731807721379 316.5272669598082 981.0731807721379 325.33878225536415Q981.0731807721379 334.1794747538855 978.5347641141466 338.1767515601477Q976.0255246591207 342.14485116344434 970.5693877045878 344.4790274006777L970.5693877045878 344.4790274006777Q961.3202143645506 334.1794747538855 939.2622489226953 332.07871614037543L939.2622489226953 332.07871614037543ZM1027.056452645635 374.70660967284965L1027.056452645635 393.6134371944399Q1027.056452645635 403.9129898412321 1029.5948693036264 408.9606459542493L1029.5948693036264 408.9606459542493Q1028.3402495761134 412.31602429527226 1022.5631633889609 415.379630606641Q1016.7860772018084 418.4140597150444 1009.7251940841775 418.4140597150444Q1002.693488169512 418.4140597150444 998.8129201751115 414.0958336761627Q994.932352180711 409.8067848402464 994.932352180711 402.4541296929613L994.932352180711 402.4541296929613L994.932352180711 313.784609881059Q994.932352180711 295.72392124546593 991.3435562159648 284.8116473363999L991.3435562159648 284.8116473363999L990.0889364884517 280.8143705301378Q990.9350753744488 279.7639912233828 992.5106443345812 278.07171345138863Q994.0862132947138 276.4086128823599 999.4548186403506 273.5784241947144Q1004.7942467830219 270.71905830410356 1010.4838013612782 270.71905830410356L1010.4838013612782 270.71905830410356Q1027.056452645635 270.71905830410356 1027.056452645635 296.97854097297886L1027.056452645635 296.97854097297886L1027.056452645635 362.5397160362708Q1031.4913874963786 359.5928185367637 1036.1013855649144 358.74667965076657L1036.1013855649144 358.74667965076657Q1041.9951805639287 340.68599101517344 1046.8094190532224 310.02075069852026L1046.8094190532224 310.02075069852026Q1052.9074544729947 307.27809361977097 1063.4112475405448 307.27809361977097L1063.4112475405448 307.27809361977097Q1077.708076993599 307.27809361977097 1077.708076993599 322.18764433509915L1077.708076993599 322.18764433509915Q1077.708076993599 330.18219794762337 1071.610041573827 344.68326782143566Q1065.5120061540547 359.18433769524785 1056.4670732347754 367.3539545255647L1056.4670732347754 367.3539545255647L1069.0716249158356 386.90268051239406Q1075.1696603356077 395.7141958079499 1078.3207982558727 399.91571303497L1078.3207982558727 399.91571303497L1081.6761765968956 404.3506478857134Q1078.5250386766306 413.5706440227852 1069.5092829603168 416.9551995667735L1069.5092829603168 416.9551995667735Q1065.7162465748127 418.4140597150444 1061.1062485062769 418.4140597150444L1061.1062485062769 418.4140597150444Q1049.9605569734874 418.4140597150444 1044.7086604397125 408.1145070682522L1044.7086604397125 408.1145070682522L1027.056452645635 374.70660967284965Z " fill="#ffffff" transform="matrix(0.8089297204123489,0,0,0.8089297204123489,0,22.20216011633424)"/></g></svg>